<?xml version="1.0" encoding="utf-8"?>
<!-- Generator: Adobe Illustrator 23.0.1, SVG Export Plug-In . SVG Version: 6.00 Build 0)  -->
<svg version="1.1" id="Layer_1" xmlns="http://www.w3.org/2000/svg" xmlns:xlink="http://www.w3.org/1999/xlink" x="0px"
     y="0px"
     viewBox="0 0 115 17.8" enable-background="new 0 0 115 17.8" xml:space="preserve">
<g>
    <g>
		<defs>
			<path id="SVGID_1_" d="M0,0v17.8h17.8V0H0z M11.3,12.2H6.5V11h4.8V12.2z M11.3,9.9h-1V7.7l0,0.1L9.2,9.9H8.6L7.5,7.8l0-0.1v2.2
				h-1V5.7h1l1.4,2.6l0,0l0,0l1.4-2.6h1V9.9z"/>
		</defs>
        <clipPath id="SVGID_2_">
			<use xlink:href="#SVGID_1_" overflow="visible"/>
		</clipPath>
        <g>
			<defs>
				<rect id="SVGID_3_" x="-0.9" y="-1.6" width="19.5" height="19.5"/>
			</defs>
            <clipPath id="SVGID_4_">
				<use xlink:href="#SVGID_3_" overflow="visible"/>
			</clipPath>
            <rect x="-0.9" y="-1.6" clip-path="url(#SVGID_4_)" fill="#F6CECD" width="19.5" height="19.5"/>
            <path clip-path="url(#SVGID_4_)" fill="#4AC2C4" d="M17.3,18.7c0,0-0.4-6.8-8.1-6.4C1.2,12.7-0.4,8.7-1.1,0.5
				c-0.7-7.4-0.7,18.9-0.7,18.9L17.3,18.7z"/>
            <g clip-path="url(#SVGID_4_)">
				<circle fill="#F15B30" cx="-6.3" cy="-3.3" r="0.3"/>
                <circle fill="#F15B30" cx="-6.3" cy="-2.4" r="0.3"/>
                <circle fill="#F15B30" cx="-5.5" cy="-2.9" r="0.3"/>
                <circle fill="#F15B30" cx="-5.3" cy="-2.1" r="0.1"/>
                <circle fill="#F15B30" cx="-4.7" cy="-4.5" r="0.3"/>
                <circle fill="#F15B30" cx="-5" cy="-3.6" r="0.3"/>
                <circle fill="#F15B30" cx="-4.1" cy="-3.8" r="0.3"/>
                <circle fill="#F15B30" cx="-4.4" cy="-2.8" r="0.2"/>
                <circle fill="#F15B30" cx="-4.4" cy="-1.9" r="0.3"/>
                <circle fill="#F15B30" cx="-4.4" cy="-1" r="0.3"/>
                <circle fill="#F15B30" cx="-3.7" cy="-1.5" r="0.3"/>
                <circle fill="#F15B30" cx="-3.7" cy="-0.6" r="0.2"/>
                <circle fill="#F15B30" cx="-3.4" cy="-2.6" r="0.3"/>
                <circle fill="#F15B30" cx="-2.7" cy="-1.5" r="0.2"/>
                <circle fill="#F15B30" cx="-6.8" cy="-0.3" r="0.3"/>
                <circle fill="#F15B30" cx="-6.6" cy="0.4" r="0.1"/>
                <circle fill="#F15B30" cx="-6.3" cy="-1.1" r="0.3"/>
                <circle fill="#F15B30" cx="-5.6" cy="-1.3" r="0.3"/>
                <circle fill="#F15B30" cx="-5.4" cy="-0.3" r="0.3"/>
                <circle fill="#F15B30" cx="-5.7" cy="0.6" r="0.3"/>
                <circle fill="#F15B30" cx="-5.7" cy="1.5" r="0.3"/>
                <circle fill="#F15B30" cx="-5" cy="1" r="0.3"/>
                <circle fill="#F15B30" cx="-4.1" cy="1.3" r="0.2"/>
                <circle fill="#F15B30" cx="-4.4" cy="-0.1" r="0.3"/>
                <circle fill="#F15B30" cx="0.7" cy="1.5" r="0.3"/>
                <circle fill="#F15B30" cx="0.4" cy="0.7" r="0.3"/>
                <circle fill="#F15B30" cx="-0.2" cy="1.3" r="0.3"/>
                <circle fill="#F15B30" cx="-0.5" cy="0.7" r="0.1"/>
                <circle fill="#F15B30" cx="-6.1" cy="3.4" r="0.3"/>
                <circle fill="#F15B30" cx="-0.4" cy="2.2" r="0.3"/>
                <circle fill="#F15B30" cx="-1.2" cy="2.6" r="0.3"/>
                <circle fill="#F15B30" cx="-1.2" cy="1.5" r="0.3"/>
                <circle fill="#F15B30" cx="-1.4" cy="0.7" r="0.2"/>
                <circle fill="#F15B30" cx="-1.5" cy="-0.1" r="0.3"/>
                <circle fill="#F15B30" cx="-2.2" cy="0.8" r="0.3"/>
                <circle fill="#F15B30" cx="-2.6" cy="-0.3" r="0.2"/>
                <circle fill="#F15B30" cx="-3.3" cy="0.5" r="0.3"/>
                <circle fill="#F15B30" cx="0.3" cy="-1.5" r="0.3"/>
                <circle fill="#F15B30" cx="0" cy="-2.1" r="0.1"/>
                <circle fill="#F15B30" cx="0.1" cy="-0.6" r="0.3"/>
                <circle fill="#F15B30" cx="-0.5" cy="-0.2" r="0.3"/>
                <circle fill="#F15B30" cx="-1" cy="-1.1" r="0.3"/>
                <circle fill="#F15B30" cx="-0.9" cy="-2.1" r="0.3"/>
                <circle fill="#F15B30" cx="-1.2" cy="-2.9" r="0.3"/>
                <circle fill="#F15B30" cx="-1.8" cy="-2.3" r="0.3"/>
                <circle fill="#F15B30" cx="-2" cy="-3.1" r="0.3"/>
                <circle fill="#F15B30" cx="-2" cy="-1" r="0.3"/>
                <circle fill="#F15B30" cx="-5" cy="2.3" r="0.3"/>
                <circle fill="#F15B30" cx="-4.8" cy="3.3" r="0.3"/>
                <circle fill="#F15B30" cx="-4" cy="2.9" r="0.3"/>
                <circle fill="#F15B30" cx="-3.9" cy="3.6" r="0.1"/>
                <circle fill="#F15B30" cx="-3.3" cy="1.3" r="0.3"/>
                <circle fill="#F15B30" cx="-3.6" cy="2.1" r="0.3"/>
                <circle fill="#F15B30" cx="-2.4" cy="2" r="0.3"/>
                <circle fill="#F15B30" cx="-3" cy="3" r="0.2"/>
                <circle fill="#F15B30" cx="-3" cy="3.8" r="0.3"/>
                <circle fill="#F15B30" cx="-3" cy="4.7" r="0.3"/>
                <circle fill="#F15B30" cx="-2.2" cy="4.3" r="0.3"/>
                <circle fill="#F15B30" cx="-2.2" cy="5.1" r="0.2"/>
                <circle fill="#F15B30" cx="-1.9" cy="3.2" r="0.3"/>
                <circle fill="#F15B30" cx="-1.3" cy="4.3" r="0.2"/>
                <circle fill="#F15B30" cx="-5.3" cy="5.4" r="0.3"/>
                <circle fill="#F15B30" cx="-5.2" cy="6.2" r="0.1"/>
                <circle fill="#F15B30" cx="-4.9" cy="4.6" r="0.3"/>
                <circle fill="#F15B30" cx="-4.2" cy="4.4" r="0.3"/>
                <circle fill="#F15B30" cx="-4" cy="5.4" r="0.3"/>
                <circle fill="#F15B30" cx="-4.3" cy="6.4" r="0.3"/>
                <circle fill="#F15B30" cx="-4.3" cy="7.2" r="0.3"/>
                <circle fill="#F15B30" cx="-3.5" cy="6.8" r="0.3"/>
                <circle fill="#F15B30" cx="-3.5" cy="7.7" r="0.3"/>
                <circle fill="#F15B30" cx="-3" cy="5.7" r="0.3"/>
                <circle fill="#F15B30" cx="2.4" cy="7.5" r="0.3"/>
                <circle fill="#F15B30" cx="1.9" cy="6.4" r="0.3"/>
                <circle fill="#F15B30" cx="1.2" cy="7.1" r="0.3"/>
                <circle fill="#F15B30" cx="0.9" cy="6.4" r="0.1"/>
                <circle fill="#F15B30" cx="1" cy="8.8" r="0.3"/>
                <circle fill="#F15B30" cx="1" cy="8" r="0.2"/>
                <circle fill="#F15B30" cx="0.1" cy="8.3" r="0.3"/>
                <circle fill="#F15B30" cx="0.2" cy="7.3" r="0.3"/>
                <circle fill="#F15B30" cx="0" cy="6.5" r="0.2"/>
                <circle fill="#F15B30" cx="0" cy="5.6" r="0.3"/>
                <circle fill="#F15B30" cx="-0.9" cy="6.3" r="0.3"/>
                <circle fill="#F15B30" cx="-1.1" cy="5.4" r="0.2"/>
                <circle fill="#F15B30" cx="-1.9" cy="6.3" r="0.3"/>
                <circle fill="#F15B30" cx="1.8" cy="4.3" r="0.3"/>
                <circle fill="#F15B30" cx="1.4" cy="3.6" r="0.1"/>
                <circle fill="#F15B30" cx="1.6" cy="5.2" r="0.3"/>
                <circle fill="#F15B30" cx="1" cy="5.6" r="0.3"/>
                <circle fill="#F15B30" cx="0.3" cy="4.7" r="0.2"/>
                <circle fill="#F15B30" cx="0.6" cy="3.7" r="0.2"/>
                <circle fill="#F15B30" cx="0.3" cy="2.6" r="0.2"/>
                <circle fill="#F15B30" cx="-0.7" cy="3.7" r="0.3"/>
                <circle fill="#F15B30" cx="-1.3" cy="7.4" r="0.3"/>
                <circle fill="#F15B30" cx="-0.6" cy="4.7" r="0.3"/>
			</g>
            <path clip-path="url(#SVGID_4_)" fill="#2B2B49" d="M-0.7-2.7c0,0,3.3,2.1,3,5.1C2.1,5.2,4.5,9,10,7.2c5.8-2,8.7,3.3,9.4,7.6
				l3.5-1.3L22.7-6L-0.9-5.3L-0.7-2.7z"/>
            <path clip-path="url(#SVGID_4_)" fill="#F15B30" d="M19,8c0,0-1.7-1-1.6-2.4c0.1-1.5-0.5-3.2-2.6-3.2S9.1,3.2,7.4-0.9
				S2.1-3.6,2.1-3.6v-1.2h18.7V8H19z"/>
            <path clip-path="url(#SVGID_4_)" fill="#2B2B49" d="M4.8,16.3c0,0,3.1-1.8,2.6-0.6c-0.5,1.1-0.2,1.3,1.4,0.4
				c1.6-0.9,2.4-1.7,0.5,0.4c-0.9,1.1,0.7,0.1,1.4-0.3c0.7-0.4,1-0.4,0.4,0.6c-0.6,1,1-0.2,0.9,0.3c-0.1,0.5-1.6,2.7-1.6,2.7
				l-4.7,0.6L4.8,16.3z"/>
            <path clip-path="url(#SVGID_4_)" fill="#C1E5E1" d="M-1.2,0.9c0,0,2.5,1.1,1.9,4.3s-1.2,4.4,1.1,6.6s4.2,1.4,4.6,7.3h-8.5
				L-1.2,0.9z"/>
            <circle clip-path="url(#SVGID_4_)" fill="#F15B30" cx="16" cy="8.4" r="1.3"/>
            <path clip-path="url(#SVGID_4_)" fill="#F15B30" d="M3.6,13.4c-0.6,0.9-1.4,0.5-1.9,0.7c-0.5,0.2-0.3,1.5-1.5,1.1
				c-0.1,0-0.2-0.1-0.3-0.1l0.2-1.3c0,0-2.3,0-3.6,0.2c-1.3,0.3-1,1.3-1.1,2.3c-0.1,1-0.5,1.4-1.3,1.9c-0.8,0.5,0.2,1.5,0.9,0.5
				c0.6-0.9,1.4-0.5,1.9-0.7c0.5-0.2,0.3-1.5,1.5-1.1c0.1,0,0.2,0.1,0.3,0.1l-0.2,1.3c0,0,2.3,0,3.6-0.2s1-1.3,1.1-2.3
				s0.5-1.4,1.3-1.9C5.2,13.4,4.3,12.4,3.6,13.4z"/>
            <g clip-path="url(#SVGID_4_)">
				<circle fill="#FEEEE9" cx="-2.7" cy="18.6" r="0.1"/>
                <circle fill="#FEEEE9" cx="-2.2" cy="18.6" r="0.1"/>
                <circle fill="#FEEEE9" cx="-2.4" cy="18.2" r="0.1"/>
                <circle fill="#FEEEE9" cx="-2.1" cy="18.2" r="0.1"/>
                <circle fill="#FEEEE9" cx="-3.3" cy="17.8" r="0.1"/>
                <circle fill="#FEEEE9" cx="-2.8" cy="18" r="0.1"/>
                <circle fill="#FEEEE9" cx="-2.9" cy="17.5" r="0.1"/>
                <circle fill="#FEEEE9" cx="-2.4" cy="17.7" r="0.1"/>
                <circle fill="#FEEEE9" cx="-2" cy="17.7" r="0.1"/>
                <circle fill="#FEEEE9" cx="-1.5" cy="17.7" r="0.1"/>
                <circle fill="#FEEEE9" cx="-1.7" cy="17.3" r="0.1"/>
                <circle fill="#FEEEE9" cx="-1.3" cy="17.3" r="0.1"/>
                <circle fill="#FEEEE9" cx="-2.3" cy="17.1" r="0.1"/>
                <circle fill="#FEEEE9" cx="-1.7" cy="16.8" r="0.1"/>
                <circle fill="#FEEEE9" cx="-1.1" cy="18.9" r="0.1"/>
                <circle fill="#FEEEE9" cx="-0.8" cy="18.8" r="0.1"/>
                <circle fill="#FEEEE9" cx="-1.5" cy="18.7" r="0.1"/>
                <circle fill="#FEEEE9" cx="-1.7" cy="18.3" r="0.1"/>
                <circle fill="#FEEEE9" cx="-1.1" cy="18.2" r="0.1"/>
                <circle fill="#FEEEE9" cx="-0.7" cy="18.4" r="0.1"/>
                <circle fill="#FEEEE9" cx="-0.2" cy="18.4" r="0.1"/>
                <circle fill="#FEEEE9" cx="-0.4" cy="18" r="0.1"/>
                <circle fill="#FEEEE9" cx="-0.3" cy="17.5" r="0.1"/>
                <circle fill="#FEEEE9" cx="-1" cy="17.7" r="0.1"/>
                <circle fill="#FEEEE9" cx="-0.2" cy="15.1" r="0.1"/>
                <circle fill="#FEEEE9" cx="-0.6" cy="15.2" r="0.1"/>
                <circle fill="#FEEEE9" cx="-0.3" cy="15.5" r="0.1"/>
                <circle fill="#FEEEE9" cx="-0.6" cy="15.7" r="0.1"/>
                <circle fill="#FEEEE9" cx="0.8" cy="18.5" r="0.1"/>
                <circle fill="#FEEEE9" cx="0.2" cy="15.6" r="0.1"/>
                <circle fill="#FEEEE9" cx="0.4" cy="16" r="0.1"/>
                <circle fill="#FEEEE9" cx="-0.2" cy="16" r="0.1"/>
                <circle fill="#FEEEE9" cx="-0.6" cy="16.2" r="0.1"/>
                <circle fill="#FEEEE9" cx="-1" cy="16.2" r="0.1"/>
                <circle fill="#FEEEE9" cx="-0.6" cy="16.6" r="0.1"/>
                <circle fill="#FEEEE9" cx="-1.1" cy="16.7" r="0.1"/>
                <circle fill="#FEEEE9" cx="-0.7" cy="17.1" r="0.1"/>
                <circle fill="#FEEEE9" cx="-1.7" cy="15.2" r="0.1"/>
                <circle fill="#FEEEE9" cx="-2.1" cy="15.4" r="0.1"/>
                <circle fill="#FEEEE9" cx="-1.3" cy="15.3" r="0.1"/>
                <circle fill="#FEEEE9" cx="-1.1" cy="15.7" r="0.1"/>
                <circle fill="#FEEEE9" cx="-1.5" cy="15.9" r="0.1"/>
                <circle fill="#FEEEE9" cx="-2" cy="15.9" r="0.1"/>
                <circle fill="#FEEEE9" cx="-2.5" cy="16" r="0.1"/>
                <circle fill="#FEEEE9" cx="-2.1" cy="16.3" r="0.1"/>
                <circle fill="#FEEEE9" cx="-2.6" cy="16.5" r="0.1"/>
                <circle fill="#FEEEE9" cx="-1.5" cy="16.5" r="0.1"/>
                <circle fill="#FEEEE9" cx="0.2" cy="18" r="0.1"/>
                <circle fill="#FEEEE9" cx="0.7" cy="17.9" r="0.1"/>
                <circle fill="#FEEEE9" cx="0.5" cy="17.5" r="0.1"/>
                <circle fill="#FEEEE9" cx="0.9" cy="17.4" r="0.1"/>
                <circle fill="#FEEEE9" cx="-0.3" cy="17.1" r="0.1"/>
                <circle fill="#FEEEE9" cx="0.1" cy="17.3" r="0.1"/>
                <circle fill="#FEEEE9" cx="0" cy="16.7" r="0.1"/>
                <circle fill="#FEEEE9" cx="0.6" cy="17" r="0.1"/>
                <circle fill="#FEEEE9" cx="1" cy="17" r="0.1"/>
                <circle fill="#FEEEE9" cx="1.4" cy="17" r="0.1"/>
                <circle fill="#FEEEE9" cx="1.2" cy="16.6" r="0.1"/>
                <circle fill="#FEEEE9" cx="1.7" cy="16.6" r="0.1"/>
                <circle fill="#FEEEE9" cx="0.6" cy="16.4" r="0.1"/>
                <circle fill="#FEEEE9" cx="1.2" cy="16.1" r="0.1"/>
                <circle fill="#FEEEE9" cx="1.8" cy="18.2" r="0.1"/>
                <circle fill="#FEEEE9" cx="2.2" cy="18.1" r="0.1"/>
                <circle fill="#FEEEE9" cx="1.4" cy="17.9" r="0.1"/>
                <circle fill="#FEEEE9" cx="1.3" cy="17.6" r="0.1"/>
                <circle fill="#FEEEE9" cx="1.8" cy="17.5" r="0.1"/>
                <circle fill="#FEEEE9" cx="2.3" cy="17.6" r="0.1"/>
                <circle fill="#FEEEE9" cx="2.7" cy="17.6" r="0.1"/>
                <circle fill="#FEEEE9" cx="2.5" cy="17.2" r="0.1"/>
                <circle fill="#FEEEE9" cx="3" cy="17.2" r="0.1"/>
                <circle fill="#FEEEE9" cx="1.9" cy="16.9" r="0.1"/>
                <circle fill="#FEEEE9" cx="2.9" cy="14.2" r="0.1"/>
                <circle fill="#FEEEE9" cx="2.3" cy="14.5" r="0.1"/>
                <circle fill="#FEEEE9" cx="2.7" cy="14.8" r="0.1"/>
                <circle fill="#FEEEE9" cx="2.3" cy="15" r="0.1"/>
                <circle fill="#FEEEE9" cx="3.6" cy="14.9" r="0.1"/>
                <circle fill="#FEEEE9" cx="3.1" cy="14.9" r="0.1"/>
                <circle fill="#FEEEE9" cx="3.3" cy="15.4" r="0.1"/>
                <circle fill="#FEEEE9" cx="2.8" cy="15.3" r="0.1"/>
                <circle fill="#FEEEE9" cx="2.4" cy="15.4" r="0.1"/>
                <circle fill="#FEEEE9" cx="1.9" cy="15.4" r="0.1"/>
                <circle fill="#FEEEE9" cx="2.3" cy="15.9" r="0.1"/>
                <circle fill="#FEEEE9" cx="1.8" cy="16" r="0.1"/>
                <circle fill="#FEEEE9" cx="2.2" cy="16.4" r="0.1"/>
                <circle fill="#FEEEE9" cx="1.2" cy="14.5" r="0.1"/>
                <circle fill="#FEEEE9" cx="0.9" cy="14.7" r="0.1"/>
                <circle fill="#FEEEE9" cx="1.7" cy="14.6" r="0.1"/>
                <circle fill="#FEEEE9" cx="1.9" cy="14.9" r="0.1"/>
                <circle fill="#FEEEE9" cx="1.4" cy="15.2" r="0.1"/>
                <circle fill="#FEEEE9" cx="0.9" cy="15.2" r="0.1"/>
                <circle fill="#FEEEE9" cx="0.5" cy="15.3" r="0.1"/>
                <circle fill="#FEEEE9" cx="0.9" cy="15.8" r="0.1"/>
                <circle fill="#FEEEE9" cx="2.8" cy="16.1" r="0.1"/>
                <circle fill="#FEEEE9" cx="1.4" cy="15.7" r="0.1"/>
			</g>
		</g>
	</g>
    <g>
		<g>
            <path fill="white" transform="translate(5,3.5)" fill-opacity="0.8"
            d="M 5.339 10.503 L 0 10.503 L 0 0 L 5.339 0 A 4.709 4.709 0 0 1 6.188 0.073 A 3.757 3.757 0 0 1 6.859 0.26 Q 7.537 0.52 8.016 1 A 3.222 3.222 0 0 1 8.701 2.024 A 3.752 3.752 0 0 1 8.756 2.161 A 3.946 3.946 0 0 1 8.988 3.145 A 4.914 4.914 0 0 1 9.016 3.677 L 9.016 6.826 A 4.639 4.639 0 0 1 8.934 7.717 A 3.787 3.787 0 0 1 8.756 8.342 A 3.36 3.36 0 0 1 8.256 9.234 A 3.086 3.086 0 0 1 8.016 9.503 A 3.239 3.239 0 0 1 6.964 10.201 A 3.753 3.753 0 0 1 6.859 10.243 A 3.887 3.887 0 0 1 5.923 10.469 A 4.929 4.929 0 0 1 5.339 10.503 Z M 1.501 9.002 L 5.339 9.002 A 3.118 3.118 0 0 0 5.975 8.941 Q 6.364 8.86 6.661 8.67 A 1.71 1.71 0 0 0 6.951 8.438 Q 7.47 7.918 7.511 6.99 A 3.683 3.683 0 0 0 7.515 6.826 L 7.515 3.677 A 3.071 3.071 0 0 0 7.478 3.192 A 2.337 2.337 0 0 0 7.368 2.761 Q 7.222 2.358 6.94 2.076 A 1.821 1.821 0 0 0 6.335 1.679 A 2.129 2.129 0 0 0 6.255 1.648 A 2.383 2.383 0 0 0 5.752 1.528 A 3.144 3.144 0 0 0 5.339 1.502 L 1.501 1.502 L 1.501 9.002 Z"
            />
			<path fill="#4AC2C4" transform="translate(20,5.5)"
            d="M 29.684 5.045 L 25.605 5.045 A 1.144 1.144 0 0 1 25.14 4.948 Q 24.92 4.852 24.756 4.69 A 1.173 1.173 0 0 1 24.498 4.31 A 1.175 1.175 0 0 1 24.404 3.844 L 24.404 1.441 A 1.175 1.175 0 0 1 24.498 0.976 A 1.173 1.173 0 0 1 24.756 0.595 Q 24.92 0.434 25.14 0.337 A 1.144 1.144 0 0 1 25.605 0.24 L 29.684 0.24 A 1.144 1.144 0 0 1 30.149 0.337 Q 30.369 0.434 30.533 0.595 A 1.173 1.173 0 0 1 30.791 0.976 A 1.175 1.175 0 0 1 30.885 1.441 L 30.885 2.525 L 29.684 2.525 L 29.684 1.441 L 25.605 1.441 L 25.605 3.844 L 29.684 3.844 A 1.175 1.175 0 0 1 30.149 3.938 Q 30.369 4.031 30.533 4.195 Q 30.697 4.359 30.791 4.579 A 1.175 1.175 0 0 1 30.885 5.045 L 30.885 7.441 A 1.175 1.175 0 0 1 30.791 7.907 Q 30.697 8.127 30.533 8.291 Q 30.369 8.455 30.149 8.549 Q 29.93 8.643 29.684 8.643 L 25.488 8.643 A 1.175 1.175 0 0 1 25.022 8.549 Q 24.803 8.455 24.639 8.291 Q 24.475 8.127 24.381 7.907 A 1.175 1.175 0 0 1 24.287 7.441 L 24.287 6.363 L 25.488 6.363 L 25.488 7.441 L 29.684 7.441 L 29.684 5.045 Z M 56.045 3.557 L 56.045 8.643 L 54.891 8.643 L 54.891 3.557 L 51.674 3.557 L 51.674 8.643 L 50.525 8.643 L 50.525 2.402 L 51.674 2.402 L 51.674 3.504 A 1.154 1.154 0 0 1 51.779 3.073 Q 51.873 2.871 52.028 2.722 Q 52.184 2.572 52.389 2.487 Q 52.594 2.402 52.828 2.402 L 54.891 2.402 A 1.129 1.129 0 0 1 55.342 2.493 A 1.162 1.162 0 0 1 55.708 2.739 A 1.162 1.162 0 0 1 55.954 3.105 A 1.129 1.129 0 0 1 56.045 3.557 Z M 37.055 3.557 L 34.078 3.557 L 34.078 7.488 L 37.055 7.488 L 37.055 6.434 L 38.209 6.434 L 38.209 7.488 A 1.129 1.129 0 0 1 38.118 7.939 A 1.162 1.162 0 0 1 37.872 8.306 A 1.162 1.162 0 0 1 37.506 8.552 A 1.129 1.129 0 0 1 37.055 8.643 L 34.078 8.643 Q 33.844 8.643 33.633 8.552 A 1.162 1.162 0 0 1 33.267 8.306 A 1.162 1.162 0 0 1 33.021 7.939 A 1.129 1.129 0 0 1 32.93 7.488 L 32.93 3.557 A 1.129 1.129 0 0 1 33.021 3.105 A 1.162 1.162 0 0 1 33.267 2.739 A 1.162 1.162 0 0 1 33.633 2.493 A 1.114 1.114 0 0 1 34.078 2.402 L 37.055 2.402 A 1.129 1.129 0 0 1 37.506 2.493 A 1.162 1.162 0 0 1 37.872 2.739 A 1.162 1.162 0 0 1 38.118 3.105 A 1.129 1.129 0 0 1 38.209 3.557 L 38.209 4.611 L 37.055 4.611 L 37.055 3.557 Z M 62.092 3.557 L 59.115 3.557 L 59.115 7.488 L 62.092 7.488 L 62.092 6.434 L 63.246 6.434 L 63.246 7.488 A 1.129 1.129 0 0 1 63.155 7.939 A 1.162 1.162 0 0 1 62.909 8.306 A 1.162 1.162 0 0 1 62.543 8.552 A 1.129 1.129 0 0 1 62.092 8.643 L 59.115 8.643 Q 58.881 8.643 58.67 8.552 A 1.162 1.162 0 0 1 58.304 8.306 A 1.162 1.162 0 0 1 58.058 7.939 A 1.129 1.129 0 0 1 57.967 7.488 L 57.967 3.557 A 1.129 1.129 0 0 1 58.058 3.105 A 1.162 1.162 0 0 1 58.304 2.739 A 1.162 1.162 0 0 1 58.67 2.493 A 1.114 1.114 0 0 1 59.115 2.402 L 62.092 2.402 A 1.129 1.129 0 0 1 62.543 2.493 A 1.162 1.162 0 0 1 62.909 2.739 A 1.162 1.162 0 0 1 63.155 3.105 A 1.129 1.129 0 0 1 63.246 3.557 L 63.246 4.611 L 62.092 4.611 L 62.092 3.557 Z M 0 7.488 L 0 5.918 A 1.118 1.118 0 0 1 0.07 5.522 A 1.067 1.067 0 0 1 0.091 5.47 A 1.208 1.208 0 0 1 0.337 5.104 Q 0.492 4.945 0.703 4.854 A 1.114 1.114 0 0 1 1.148 4.764 L 4.125 4.764 L 4.125 3.557 L 0.357 3.557 L 0.357 2.402 L 4.125 2.402 A 1.129 1.129 0 0 1 4.576 2.493 A 1.162 1.162 0 0 1 4.942 2.739 A 1.162 1.162 0 0 1 5.189 3.105 A 1.129 1.129 0 0 1 5.279 3.557 L 5.279 8.643 L 4.125 8.643 L 4.125 7.588 A 1.077 1.077 0 0 1 4.008 7.998 A 1.208 1.208 0 0 1 3.753 8.335 A 1.179 1.179 0 0 1 3.398 8.561 Q 3.199 8.643 2.977 8.643 L 1.148 8.643 Q 0.914 8.643 0.703 8.552 A 1.162 1.162 0 0 1 0.337 8.306 A 1.162 1.162 0 0 1 0.091 7.939 A 1.129 1.129 0 0 1 0 7.488 Z M 13.488 7.488 L 13.488 5.918 A 1.118 1.118 0 0 1 13.558 5.522 A 1.067 1.067 0 0 1 13.579 5.47 A 1.208 1.208 0 0 1 13.825 5.104 Q 13.98 4.945 14.191 4.854 A 1.114 1.114 0 0 1 14.637 4.764 L 17.613 4.764 L 17.613 3.557 L 13.846 3.557 L 13.846 2.402 L 17.613 2.402 A 1.129 1.129 0 0 1 18.064 2.493 A 1.162 1.162 0 0 1 18.431 2.739 A 1.162 1.162 0 0 1 18.677 3.105 A 1.129 1.129 0 0 1 18.768 3.557 L 18.768 8.643 L 17.613 8.643 L 17.613 7.588 A 1.077 1.077 0 0 1 17.496 7.998 A 1.208 1.208 0 0 1 17.241 8.335 A 1.179 1.179 0 0 1 16.887 8.561 Q 16.688 8.643 16.465 8.643 L 14.637 8.643 Q 14.402 8.643 14.191 8.552 A 1.162 1.162 0 0 1 13.825 8.306 A 1.162 1.162 0 0 1 13.579 7.939 A 1.129 1.129 0 0 1 13.488 7.488 Z M 48.604 3.557 L 48.604 6.111 L 44.473 6.111 L 44.473 7.488 L 48.604 7.488 L 48.604 8.643 L 44.473 8.643 Q 44.238 8.643 44.027 8.552 A 1.162 1.162 0 0 1 43.661 8.306 A 1.162 1.162 0 0 1 43.415 7.939 A 1.129 1.129 0 0 1 43.324 7.488 L 43.324 3.557 A 1.129 1.129 0 0 1 43.415 3.105 A 1.162 1.162 0 0 1 43.661 2.739 A 1.162 1.162 0 0 1 44.027 2.493 A 1.114 1.114 0 0 1 44.473 2.402 L 47.449 2.402 A 1.129 1.129 0 0 1 47.9 2.493 A 1.162 1.162 0 0 1 48.267 2.739 A 1.162 1.162 0 0 1 48.513 3.105 A 1.129 1.129 0 0 1 48.604 3.557 Z M 70.447 3.557 L 70.447 6.111 L 66.316 6.111 L 66.316 7.488 L 70.447 7.488 L 70.447 8.643 L 66.316 8.643 Q 66.082 8.643 65.871 8.552 A 1.162 1.162 0 0 1 65.505 8.306 A 1.162 1.162 0 0 1 65.259 7.939 A 1.129 1.129 0 0 1 65.168 7.488 L 65.168 3.557 A 1.129 1.129 0 0 1 65.259 3.105 A 1.162 1.162 0 0 1 65.505 2.739 A 1.162 1.162 0 0 1 65.871 2.493 A 1.114 1.114 0 0 1 66.316 2.402 L 69.293 2.402 A 1.129 1.129 0 0 1 69.744 2.493 A 1.162 1.162 0 0 1 70.11 2.739 A 1.162 1.162 0 0 1 70.356 3.105 A 1.129 1.129 0 0 1 70.447 3.557 Z M 6.838 3.557 L 6.838 2.402 L 8.361 2.402 L 8.361 0.48 L 9.516 0.48 L 9.516 2.402 L 11.566 2.402 L 11.566 3.557 L 9.516 3.557 L 9.516 7.488 L 11.566 7.488 L 11.566 8.643 L 9.516 8.643 Q 9.281 8.643 9.07 8.552 A 1.198 1.198 0 0 1 8.701 8.306 Q 8.543 8.15 8.452 7.939 A 1.129 1.129 0 0 1 8.361 7.488 L 8.361 3.557 L 6.838 3.557 Z M 86.889 1.441 L 86.889 7.441 A 1.175 1.175 0 0 1 86.795 7.907 Q 86.701 8.127 86.537 8.291 Q 86.373 8.455 86.153 8.549 Q 85.934 8.643 85.688 8.643 L 81.486 8.643 A 1.175 1.175 0 0 1 81.021 8.549 Q 80.801 8.455 80.637 8.291 Q 80.473 8.127 80.379 7.907 A 1.175 1.175 0 0 1 80.285 7.441 L 80.285 1.441 A 1.175 1.175 0 0 1 80.379 0.976 A 1.173 1.173 0 0 1 80.637 0.595 Q 80.801 0.434 81.021 0.337 A 1.144 1.144 0 0 1 81.486 0.24 L 85.688 0.24 A 1.144 1.144 0 0 1 86.153 0.337 Q 86.373 0.434 86.537 0.595 A 1.173 1.173 0 0 1 86.795 0.976 A 1.175 1.175 0 0 1 86.889 1.441 Z M 75.363 0.24 L 78.006 0.24 L 78.006 8.643 L 76.805 8.643 L 76.805 1.441 L 75.363 1.441 L 75.363 0.24 Z M 88.324 0.24 L 90.967 0.24 L 90.967 8.643 L 89.766 8.643 L 89.766 1.441 L 88.324 1.441 L 88.324 0.24 Z M 85.688 1.441 L 81.486 1.441 L 81.486 7.441 L 85.688 7.441 L 85.688 1.441 Z M 40.189 2.402 L 41.344 2.402 L 41.344 8.643 L 40.189 8.643 L 40.189 2.402 Z M 1.148 5.918 L 1.148 7.488 L 4.125 7.488 L 4.125 5.918 L 1.148 5.918 Z M 14.637 5.918 L 14.637 7.488 L 17.613 7.488 L 17.613 5.918 L 14.637 5.918 Z M 47.449 3.557 L 44.473 3.557 L 44.473 4.957 L 47.449 4.957 L 47.449 3.557 Z M 69.293 3.557 L 66.316 3.557 L 66.316 4.957 L 69.293 4.957 L 69.293 3.557 Z M 40.131 1.201 L 40.131 0 L 41.402 0 L 41.402 1.201 L 40.131 1.201 Z"
            />
		</g>
	</g>
</g>
</svg>
