<?xml version="1.0" encoding="utf-8"?>
<!-- Generator: Adobe Illustrator 21.1.0, SVG Export Plug-In . SVG Version: 6.00 Build 0)  -->
<svg version="1.1" id="Layer_1" xmlns="http://www.w3.org/2000/svg" xmlns:xlink="http://www.w3.org/1999/xlink" x="0px" y="0px"
	 width="72px" height="17.8px" viewBox="0 0 72 17.8" enable-background="new 0 0 72 17.8" xml:space="preserve">
	<style>
    .small { font: italic 13px sans-serif; }
    .heavy { font: bold 30px sans-serif; }

    /* Note that the color of the text is set with the    *
     * fill property, the color property is for HTML only */
    .Rrrrr { font: italic 140px serif; fill: red; }
  </style>
	<text x="65" y="55" class="Rrrrr">Grumpy!</text>
<g>
	<g>
		<g>
			 <text x="65" y="55" class="Rrrrr">Grumpy!</text>
		</g>
	</g>
	<g>
		<defs>
			<path id="SVGID_1_" d="M0,0v17.8h17.8V0H0z M11.3,12.2H6.5V11h4.8V12.2z M11.3,9.9h-1V7.7l0,0.1L9.2,9.9H8.6L7.5,7.8l0-0.1v2.2
				h-1V5.7h1l1.4,2.6l0,0l0,0l1.4-2.6h1V9.9z"/>
		</defs>
		<clipPath id="SVGID_2_">
			<use xlink:href="#SVGID_1_"  overflow="visible"/>
		</clipPath>
		<g clip-path="url(#SVGID_2_)">
			<defs>
				<rect id="SVGID_3_" x="-17.1" y="-17.9" width="49.8" height="49.8"/>
			</defs>
			<clipPath id="SVGID_4_">
				<use xlink:href="#SVGID_3_"  overflow="visible"/>
			</clipPath>
			<g clip-path="url(#SVGID_4_)">
				<rect x="-17.1" y="-17.9" fill="#C1E4E2" width="49.8" height="49.8"/>
				<g>
					<circle fill="#EBB025" cx="-11.7" cy="-4.3" r="0.6"/>
					<circle fill="#EBB025" cx="-6.1" cy="-4.3" r="0.6"/>
					<circle fill="#EBB025" cx="-0.6" cy="-4.3" r="0.3"/>
					<circle fill="#EBB025" cx="5" cy="-4.3" r="0.3"/>
					<circle fill="#EBB025" cx="10.5" cy="-4.3" r="0.2"/>
					<circle fill="#EBB025" cx="16.1" cy="-4.3" r="0.1"/>
					<circle fill="#EBB025" cx="-11.7" cy="-9.9" r="0.6"/>
					<circle fill="#EBB025" cx="-6.1" cy="-9.9" r="0.3"/>
					<circle fill="#EBB025" cx="-0.6" cy="-9.9" r="0.3"/>
					<circle fill="#EBB025" cx="5" cy="-9.9" r="0.2"/>
					<circle fill="#EBB025" cx="10.5" cy="-9.9" r="0.1"/>
					<circle fill="#EBB025" cx="-11.7" cy="6.8" r="0.6"/>
					<circle fill="#EBB025" cx="-6.1" cy="6.8" r="0.6"/>
					<circle fill="#EBB025" cx="-0.6" cy="6.8" r="0.6"/>
					<circle fill="#EBB025" cx="5" cy="6.8" r="0.6"/>
					<circle fill="#EBB025" cx="10.5" cy="6.8" r="0.3"/>
					<circle fill="#EBB025" cx="16.1" cy="6.8" r="0.3"/>
					<circle fill="#EBB025" cx="21.6" cy="6.8" r="0.2"/>
					<circle fill="#EBB025" cx="27.2" cy="6.8" r="0.1"/>
					<circle fill="#EBB025" cx="-11.7" cy="1.2" r="0.6"/>
					<circle fill="#EBB025" cx="-6.1" cy="1.2" r="0.6"/>
					<circle fill="#EBB025" cx="-0.6" cy="1.2" r="0.6"/>
					<circle fill="#EBB025" cx="5" cy="1.2" r="0.3"/>
					<circle fill="#EBB025" cx="10.5" cy="1.2" r="0.3"/>
					<circle fill="#EBB025" cx="16.1" cy="1.2" r="0.2"/>
					<circle fill="#EBB025" cx="21.6" cy="1.2" r="0.1"/>
					<circle fill="#EBB025" cx="-11.7" cy="17.9" r="0.6"/>
					<circle fill="#EBB025" cx="-6.1" cy="17.9" r="0.6"/>
					<circle fill="#EBB025" cx="-0.6" cy="17.9" r="0.6"/>
					<circle fill="#EBB025" cx="5" cy="17.9" r="0.6"/>
					<circle fill="#EBB025" cx="10.5" cy="17.9" r="0.6"/>
					<circle fill="#EBB025" cx="16.1" cy="17.9" r="0.6"/>
					<circle fill="#EBB025" cx="21.6" cy="17.9" r="0.3"/>
					<circle fill="#EBB025" cx="27.2" cy="17.9" r="0.3"/>
					<circle fill="#EBB025" cx="-11.7" cy="12.3" r="0.6"/>
					<circle fill="#EBB025" cx="-6.1" cy="12.3" r="0.6"/>
					<circle fill="#EBB025" cx="-0.6" cy="12.3" r="0.6"/>
					<circle fill="#EBB025" cx="5" cy="12.3" r="0.6"/>
					<circle fill="#EBB025" cx="10.5" cy="12.3" r="0.6"/>
					<circle fill="#EBB025" cx="16.1" cy="12.3" r="0.3"/>
					<circle fill="#EBB025" cx="21.6" cy="12.3" r="0.3"/>
					<circle fill="#EBB025" cx="27.2" cy="12.3" r="0.2"/>
					<circle fill="#EBB025" cx="-11.7" cy="29" r="0.6"/>
					<circle fill="#EBB025" cx="-6.1" cy="29" r="0.6"/>
					<circle fill="#EBB025" cx="-0.6" cy="29" r="0.6"/>
					<circle fill="#EBB025" cx="5" cy="29" r="0.6"/>
					<circle fill="#EBB025" cx="10.5" cy="29" r="0.6"/>
					<circle fill="#EBB025" cx="16.1" cy="29" r="0.6"/>
					<circle fill="#EBB025" cx="21.6" cy="29" r="0.6"/>
					<circle fill="#EBB025" cx="27.2" cy="29" r="0.6"/>
					<circle fill="#EBB025" cx="-11.7" cy="23.4" r="0.6"/>
					<circle fill="#EBB025" cx="-6.1" cy="23.4" r="0.6"/>
					<circle fill="#EBB025" cx="-0.6" cy="23.4" r="0.6"/>
					<circle fill="#EBB025" cx="5" cy="23.4" r="0.6"/>
					<circle fill="#EBB025" cx="10.5" cy="23.4" r="0.6"/>
					<circle fill="#EBB025" cx="16.1" cy="23.4" r="0.6"/>
					<circle fill="#EBB025" cx="21.6" cy="23.4" r="0.6"/>
					<circle fill="#EBB025" cx="27.2" cy="23.4" r="0.3"/>
					<circle fill="#EBB025" cx="-11.7" cy="-15.4" r="0.3"/>
					<circle fill="#EBB025" cx="-6.1" cy="-15.4" r="0.3"/>
					<circle fill="#EBB025" cx="-0.6" cy="-15.4" r="0.2"/>
					<circle fill="#EBB025" cx="5" cy="-15.4" r="0.1"/>
					<circle fill="#EBB025" cx="-11.7" cy="-20.9" r="0.3"/>
					<circle fill="#EBB025" cx="-6.1" cy="-20.9" r="0.2"/>
					<circle fill="#EBB025" cx="-0.6" cy="-20.9" r="0.1"/>
				</g>
				<g>
					<circle fill="#EEEDEF" cx="3.5" cy="32.8" r="0.6"/>
					<circle fill="#EEEDEF" cx="3.5" cy="27.3" r="0.6"/>
					<circle fill="#EEEDEF" cx="3.5" cy="21.7" r="0.3"/>
					<circle fill="#EEEDEF" cx="3.5" cy="16.2" r="0.3"/>
					<circle fill="#EEEDEF" cx="3.5" cy="10.6" r="0.2"/>
					<circle fill="#EEEDEF" cx="3.5" cy="5.1" r="0.1"/>
					<circle fill="#EEEDEF" cx="-2.1" cy="32.8" r="0.6"/>
					<circle fill="#EEEDEF" cx="-2.1" cy="27.3" r="0.3"/>
					<circle fill="#EEEDEF" cx="-2.1" cy="21.7" r="0.3"/>
					<circle fill="#EEEDEF" cx="-2.1" cy="16.2" r="0.2"/>
					<circle fill="#EEEDEF" cx="-2.1" cy="10.6" r="0.1"/>
					<circle fill="#EEEDEF" cx="14.6" cy="32.8" r="0.6"/>
					<circle fill="#EEEDEF" cx="14.6" cy="27.3" r="0.6"/>
					<circle fill="#EEEDEF" cx="14.6" cy="21.7" r="0.6"/>
					<circle fill="#EEEDEF" cx="14.6" cy="16.2" r="0.6"/>
					<circle fill="#EEEDEF" cx="14.6" cy="10.6" r="0.3"/>
					<circle fill="#EEEDEF" cx="14.6" cy="5.1" r="0.3"/>
					<circle fill="#EEEDEF" cx="14.6" cy="-0.5" r="0.2"/>
					<circle fill="#EEEDEF" cx="14.6" cy="-6" r="0.1"/>
					<circle fill="#EEEDEF" cx="9" cy="32.8" r="0.6"/>
					<circle fill="#EEEDEF" cx="9" cy="27.3" r="0.6"/>
					<circle fill="#EEEDEF" cx="9" cy="21.7" r="0.6"/>
					<circle fill="#EEEDEF" cx="9" cy="16.2" r="0.3"/>
					<circle fill="#EEEDEF" cx="9" cy="10.6" r="0.3"/>
					<circle fill="#EEEDEF" cx="9" cy="5.1" r="0.2"/>
					<circle fill="#EEEDEF" cx="9" cy="-0.5" r="0.1"/>
					<circle fill="#EEEDEF" cx="25.7" cy="32.8" r="0.6"/>
					<circle fill="#EEEDEF" cx="25.7" cy="27.3" r="0.6"/>
					<circle fill="#EEEDEF" cx="25.7" cy="21.7" r="0.6"/>
					<circle fill="#EEEDEF" cx="25.7" cy="16.2" r="0.6"/>
					<circle fill="#EEEDEF" cx="25.7" cy="10.6" r="0.6"/>
					<circle fill="#EEEDEF" cx="25.7" cy="5.1" r="0.6"/>
					<circle fill="#EEEDEF" cx="25.7" cy="-0.5" r="0.3"/>
					<circle fill="#EEEDEF" cx="25.7" cy="-6" r="0.3"/>
					<circle fill="#EEEDEF" cx="20.1" cy="32.8" r="0.6"/>
					<circle fill="#EEEDEF" cx="20.1" cy="27.3" r="0.6"/>
					<circle fill="#EEEDEF" cx="20.1" cy="21.7" r="0.6"/>
					<circle fill="#EEEDEF" cx="20.1" cy="16.2" r="0.6"/>
					<circle fill="#EEEDEF" cx="20.1" cy="10.6" r="0.6"/>
					<circle fill="#EEEDEF" cx="20.1" cy="5.1" r="0.3"/>
					<circle fill="#EEEDEF" cx="20.1" cy="-0.5" r="0.3"/>
					<circle fill="#EEEDEF" cx="20.1" cy="-6" r="0.2"/>
					<circle fill="#EEEDEF" cx="36.8" cy="32.8" r="0.6"/>
					<circle fill="#EEEDEF" cx="36.8" cy="27.3" r="0.6"/>
					<circle fill="#EEEDEF" cx="36.8" cy="21.7" r="0.6"/>
					<circle fill="#EEEDEF" cx="36.8" cy="16.2" r="0.6"/>
					<circle fill="#EEEDEF" cx="36.8" cy="10.6" r="0.6"/>
					<circle fill="#EEEDEF" cx="36.8" cy="5.1" r="0.6"/>
					<circle fill="#EEEDEF" cx="36.8" cy="-0.5" r="0.6"/>
					<circle fill="#EEEDEF" cx="36.8" cy="-6" r="0.6"/>
					<circle fill="#EEEDEF" cx="31.2" cy="32.8" r="0.6"/>
					<circle fill="#EEEDEF" cx="31.2" cy="27.3" r="0.6"/>
					<circle fill="#EEEDEF" cx="31.2" cy="21.7" r="0.6"/>
					<circle fill="#EEEDEF" cx="31.2" cy="16.2" r="0.6"/>
					<circle fill="#EEEDEF" cx="31.2" cy="10.6" r="0.6"/>
					<circle fill="#EEEDEF" cx="31.2" cy="5.1" r="0.6"/>
					<circle fill="#EEEDEF" cx="31.2" cy="-0.5" r="0.6"/>
					<circle fill="#EEEDEF" cx="31.2" cy="-6" r="0.3"/>
					<circle fill="#EEEDEF" cx="-7.6" cy="32.8" r="0.3"/>
					<circle fill="#EEEDEF" cx="-7.6" cy="27.3" r="0.3"/>
					<circle fill="#EEEDEF" cx="-7.6" cy="21.7" r="0.2"/>
					<circle fill="#EEEDEF" cx="-7.6" cy="16.2" r="0.1"/>
					<circle fill="#EEEDEF" cx="-13.1" cy="32.8" r="0.3"/>
					<circle fill="#EEEDEF" cx="-13.1" cy="27.3" r="0.2"/>
					<circle fill="#EEEDEF" cx="-13.1" cy="21.7" r="0.1"/>
				</g>
				<circle fill="#EBB025" cx="-16.9" cy="31.5" r="25.7"/>
				<g>
					<circle fill="#F15B30" cx="31.3" cy="-12" r="28.7"/>
					<g>
						<defs>
							<circle id="SVGID_5_" cx="31.3" cy="-12" r="28.7"/>
						</defs>
						<clipPath id="SVGID_6_">
							<use xlink:href="#SVGID_5_"  overflow="visible"/>
						</clipPath>
						<g clip-path="url(#SVGID_6_)">
							<g>

									<ellipse transform="matrix(0.9669 -0.2553 0.2553 0.9669 2.8443 8.2487)" fill="#F15B30" cx="33.2" cy="-6.8" rx="31.8" ry="34.5"/>
							</g>
							<defs>
								<filter id="Adobe_OpacityMaskFilter" filterUnits="userSpaceOnUse" x="1.2" y="-41.2" width="64" height="68.7">

										<feColorMatrix  type="matrix" values="-1 0 0 0 1  0 -1 0 0 1  0 0 -1 0 1  0 0 0 1 0" color-interpolation-filters="sRGB" result="source"/>
								</filter>
							</defs>
							<mask maskUnits="userSpaceOnUse" x="1.2" y="-41.2" width="64" height="68.7" id="SVGID_7_">
								<g filter="url(#Adobe_OpacityMaskFilter)">


								</g>
							</mask>
							<g opacity="0.75" mask="url(#SVGID_7_)">

									<ellipse transform="matrix(0.9669 -0.2553 0.2553 0.9669 2.8443 8.2487)" fill="#010101" cx="33.2" cy="-6.8" rx="31.8" ry="34.5"/>
							</g>
						</g>
						<g clip-path="url(#SVGID_6_)">
							<g>
								<circle fill="#85423B" cx="-5.4" cy="4.4" r="0.5"/>
								<circle fill="#85423B" cx="-0.6" cy="4.4" r="0.5"/>
								<circle fill="#85423B" cx="4.2" cy="4.4" r="0.2"/>
								<circle fill="#85423B" cx="9" cy="4.4" r="0.2"/>
								<circle fill="#85423B" cx="13.9" cy="4.4" r="0.2"/>
								<circle fill="#85423B" cx="18.7" cy="4.4" r="0.1"/>
								<circle fill="#85423B" cx="-5.4" cy="-0.4" r="0.5"/>
								<circle fill="#85423B" cx="-0.6" cy="-0.4" r="0.2"/>
								<circle fill="#85423B" cx="4.2" cy="-0.4" r="0.2"/>
								<circle fill="#85423B" cx="9" cy="-0.4" r="0.2"/>
								<circle fill="#85423B" cx="13.9" cy="-0.4" r="0.1"/>
								<circle fill="#85423B" cx="-5.4" cy="14.1" r="0.5"/>
								<circle fill="#85423B" cx="-0.6" cy="14.1" r="0.5"/>
								<circle fill="#85423B" cx="4.2" cy="14.1" r="0.5"/>
								<circle fill="#85423B" cx="9" cy="14.1" r="0.5"/>
								<circle fill="#85423B" cx="13.9" cy="14.1" r="0.2"/>
								<circle fill="#85423B" cx="18.7" cy="14.1" r="0.2"/>
								<circle fill="#85423B" cx="23.5" cy="14.1" r="0.2"/>
								<circle fill="#85423B" cx="28.4" cy="14.1" r="0.1"/>
								<circle fill="#85423B" cx="-5.4" cy="9.2" r="0.5"/>
								<circle fill="#85423B" cx="-0.6" cy="9.2" r="0.5"/>
								<circle fill="#85423B" cx="4.2" cy="9.2" r="0.5"/>
								<circle fill="#85423B" cx="9" cy="9.2" r="0.2"/>
								<circle fill="#85423B" cx="13.9" cy="9.2" r="0.2"/>
								<circle fill="#85423B" cx="18.7" cy="9.2" r="0.2"/>
								<circle fill="#85423B" cx="23.5" cy="9.2" r="0.1"/>
								<circle fill="#85423B" cx="-5.4" cy="-5.2" r="0.2"/>
								<circle fill="#85423B" cx="-0.6" cy="-5.2" r="0.2"/>
								<circle fill="#85423B" cx="4.2" cy="-5.2" r="0.2"/>
								<circle fill="#85423B" cx="9" cy="-5.2" r="0.1"/>
								<circle fill="#85423B" cx="-5.4" cy="-10.1" r="0.2"/>
								<circle fill="#85423B" cx="-0.6" cy="-10.1" r="0.2"/>
								<circle fill="#85423B" cx="4.2" cy="-10.1" r="0.1"/>
							</g>
							<g>
								<circle fill="#85423B" cx="-3" cy="2" r="0.5"/>
								<circle fill="#85423B" cx="1.8" cy="2" r="0.5"/>
								<circle fill="#85423B" cx="6.7" cy="2" r="0.2"/>
								<circle fill="#85423B" cx="11.5" cy="2" r="0.2"/>
								<circle fill="#85423B" cx="16.3" cy="2" r="0.2"/>
								<circle fill="#85423B" cx="21.1" cy="2" r="0.1"/>
								<circle fill="#85423B" cx="-3" cy="-2.8" r="0.5"/>
								<circle fill="#85423B" cx="1.8" cy="-2.8" r="0.2"/>
								<circle fill="#85423B" cx="6.7" cy="-2.8" r="0.2"/>
								<circle fill="#85423B" cx="11.5" cy="-2.8" r="0.2"/>
								<circle fill="#85423B" cx="16.3" cy="-2.8" r="0.1"/>
								<circle fill="#85423B" cx="-3" cy="11.6" r="0.5"/>
								<circle fill="#85423B" cx="1.8" cy="11.6" r="0.5"/>
								<circle fill="#85423B" cx="6.7" cy="11.6" r="0.5"/>
								<circle fill="#85423B" cx="11.5" cy="11.6" r="0.5"/>
								<circle fill="#85423B" cx="16.3" cy="11.6" r="0.2"/>
								<circle fill="#85423B" cx="21.1" cy="11.6" r="0.2"/>
								<circle fill="#85423B" cx="26" cy="11.6" r="0.2"/>
								<circle fill="#85423B" cx="30.8" cy="11.6" r="0.1"/>
								<circle fill="#85423B" cx="-3" cy="6.8" r="0.5"/>
								<circle fill="#85423B" cx="1.8" cy="6.8" r="0.5"/>
								<circle fill="#85423B" cx="6.7" cy="6.8" r="0.5"/>
								<circle fill="#85423B" cx="11.5" cy="6.8" r="0.2"/>
								<circle fill="#85423B" cx="16.3" cy="6.8" r="0.2"/>
								<circle fill="#85423B" cx="21.1" cy="6.8" r="0.2"/>
								<circle fill="#85423B" cx="26" cy="6.8" r="0.1"/>
								<circle fill="#85423B" cx="-3" cy="16.5" r="0.5"/>
								<circle fill="#85423B" cx="1.8" cy="16.5" r="0.5"/>
								<circle fill="#85423B" cx="6.7" cy="16.5" r="0.5"/>
								<circle fill="#85423B" cx="11.5" cy="16.5" r="0.5"/>
								<circle fill="#85423B" cx="16.3" cy="16.5" r="0.5"/>
								<circle fill="#85423B" cx="21.1" cy="16.5" r="0.2"/>
								<circle fill="#85423B" cx="26" cy="16.5" r="0.2"/>
								<circle fill="#85423B" cx="30.8" cy="16.5" r="0.2"/>
								<circle fill="#85423B" cx="-3" cy="-7.7" r="0.2"/>
								<circle fill="#85423B" cx="1.8" cy="-7.7" r="0.2"/>
								<circle fill="#85423B" cx="6.7" cy="-7.7" r="0.2"/>
								<circle fill="#85423B" cx="11.5" cy="-7.7" r="0.1"/>
								<circle fill="#85423B" cx="-3" cy="-12.5" r="0.2"/>
								<circle fill="#85423B" cx="1.8" cy="-12.5" r="0.2"/>
								<circle fill="#85423B" cx="6.7" cy="-12.5" r="0.1"/>
							</g>
							<g>
								<circle fill="#85423B" cx="-5.4" cy="2.1" r="0.5"/>
								<circle fill="#85423B" cx="-0.6" cy="2.1" r="0.5"/>
								<circle fill="#85423B" cx="4.2" cy="2.1" r="0.2"/>
								<circle fill="#85423B" cx="9" cy="2.1" r="0.2"/>
								<circle fill="#85423B" cx="13.9" cy="2.1" r="0.2"/>
								<circle fill="#85423B" cx="18.7" cy="2.1" r="0.1"/>
								<circle fill="#85423B" cx="-5.4" cy="-2.8" r="0.5"/>
								<circle fill="#85423B" cx="-0.6" cy="-2.8" r="0.2"/>
								<circle fill="#85423B" cx="4.2" cy="-2.8" r="0.2"/>
								<circle fill="#85423B" cx="9" cy="-2.8" r="0.2"/>
								<circle fill="#85423B" cx="13.9" cy="-2.8" r="0.1"/>
								<circle fill="#85423B" cx="-5.4" cy="11.7" r="0.5"/>
								<circle fill="#85423B" cx="-0.6" cy="11.7" r="0.5"/>
								<circle fill="#85423B" cx="4.2" cy="11.7" r="0.5"/>
								<circle fill="#85423B" cx="9" cy="11.7" r="0.5"/>
								<circle fill="#85423B" cx="13.9" cy="11.7" r="0.2"/>
								<circle fill="#85423B" cx="18.7" cy="11.7" r="0.2"/>
								<circle fill="#85423B" cx="23.5" cy="11.7" r="0.2"/>
								<circle fill="#85423B" cx="28.4" cy="11.7" r="0.1"/>
								<circle fill="#85423B" cx="-5.4" cy="6.9" r="0.5"/>
								<circle fill="#85423B" cx="-0.6" cy="6.9" r="0.5"/>
								<circle fill="#85423B" cx="4.2" cy="6.9" r="0.5"/>
								<circle fill="#85423B" cx="9" cy="6.9" r="0.2"/>
								<circle fill="#85423B" cx="13.9" cy="6.9" r="0.2"/>
								<circle fill="#85423B" cx="18.7" cy="6.9" r="0.2"/>
								<circle fill="#85423B" cx="23.5" cy="6.9" r="0.1"/>
								<circle fill="#85423B" cx="-5.4" cy="16.5" r="0.5"/>
								<circle fill="#85423B" cx="-0.6" cy="16.5" r="0.5"/>
								<circle fill="#85423B" cx="4.2" cy="16.5" r="0.5"/>
								<circle fill="#85423B" cx="9" cy="16.5" r="0.5"/>
								<circle fill="#85423B" cx="13.9" cy="16.5" r="0.5"/>
								<circle fill="#85423B" cx="18.7" cy="16.5" r="0.2"/>
								<circle fill="#85423B" cx="23.5" cy="16.5" r="0.2"/>
								<circle fill="#85423B" cx="28.4" cy="16.5" r="0.2"/>
								<circle fill="#85423B" cx="-5.4" cy="-7.6" r="0.2"/>
								<circle fill="#85423B" cx="-0.6" cy="-7.6" r="0.2"/>
								<circle fill="#85423B" cx="4.2" cy="-7.6" r="0.2"/>
								<circle fill="#85423B" cx="9" cy="-7.6" r="0.1"/>
								<circle fill="#85423B" cx="-5.4" cy="-12.4" r="0.2"/>
								<circle fill="#85423B" cx="-0.6" cy="-12.4" r="0.2"/>
								<circle fill="#85423B" cx="4.2" cy="-12.4" r="0.1"/>
							</g>
							<g>
								<circle fill="#85423B" cx="-3" cy="-0.4" r="0.5"/>
								<circle fill="#85423B" cx="1.8" cy="-0.4" r="0.5"/>
								<circle fill="#85423B" cx="6.7" cy="-0.4" r="0.2"/>
								<circle fill="#85423B" cx="11.5" cy="-0.4" r="0.2"/>
								<circle fill="#85423B" cx="16.3" cy="-0.4" r="0.2"/>
								<circle fill="#85423B" cx="21.1" cy="-0.4" r="0.1"/>
								<circle fill="#85423B" cx="-3" cy="-5.2" r="0.5"/>
								<circle fill="#85423B" cx="1.8" cy="-5.2" r="0.2"/>
								<circle fill="#85423B" cx="6.7" cy="-5.2" r="0.2"/>
								<circle fill="#85423B" cx="11.5" cy="-5.2" r="0.2"/>
								<circle fill="#85423B" cx="16.3" cy="-5.2" r="0.1"/>
								<circle fill="#85423B" cx="-3" cy="9.3" r="0.5"/>
								<circle fill="#85423B" cx="1.8" cy="9.3" r="0.5"/>
								<circle fill="#85423B" cx="6.7" cy="9.3" r="0.5"/>
								<circle fill="#85423B" cx="11.5" cy="9.3" r="0.5"/>
								<circle fill="#85423B" cx="16.3" cy="9.3" r="0.2"/>
								<circle fill="#85423B" cx="21.1" cy="9.3" r="0.2"/>
								<circle fill="#85423B" cx="26" cy="9.3" r="0.2"/>
								<circle fill="#85423B" cx="30.8" cy="9.3" r="0.1"/>
								<circle fill="#85423B" cx="-3" cy="4.4" r="0.5"/>
								<circle fill="#85423B" cx="1.8" cy="4.4" r="0.5"/>
								<circle fill="#85423B" cx="6.7" cy="4.4" r="0.5"/>
								<circle fill="#85423B" cx="11.5" cy="4.4" r="0.2"/>
								<circle fill="#85423B" cx="16.3" cy="4.4" r="0.2"/>
								<circle fill="#85423B" cx="21.1" cy="4.4" r="0.2"/>
								<circle fill="#85423B" cx="26" cy="4.4" r="0.1"/>
								<circle fill="#85423B" cx="-3" cy="14.1" r="0.5"/>
								<circle fill="#85423B" cx="1.8" cy="14.1" r="0.5"/>
								<circle fill="#85423B" cx="6.7" cy="14.1" r="0.5"/>
								<circle fill="#85423B" cx="11.5" cy="14.1" r="0.5"/>
								<circle fill="#85423B" cx="16.3" cy="14.1" r="0.5"/>
								<circle fill="#85423B" cx="21.1" cy="14.1" r="0.2"/>
								<circle fill="#85423B" cx="26" cy="14.1" r="0.2"/>
								<circle fill="#85423B" cx="30.8" cy="14.1" r="0.2"/>
								<circle fill="#85423B" cx="-3" cy="-10" r="0.2"/>
								<circle fill="#85423B" cx="1.8" cy="-10" r="0.2"/>
								<circle fill="#85423B" cx="6.7" cy="-10" r="0.2"/>
								<circle fill="#85423B" cx="11.5" cy="-10" r="0.1"/>
								<circle fill="#85423B" cx="-3" cy="-14.9" r="0.2"/>
								<circle fill="#85423B" cx="1.8" cy="-14.9" r="0.2"/>
								<circle fill="#85423B" cx="6.7" cy="-14.9" r="0.1"/>
							</g>
						</g>
					</g>
				</g>
				<g>
					<circle fill="#F15B30" cx="2.2" cy="-13.7" r="0.6"/>
					<circle fill="#F15B30" cx="2.2" cy="-8.2" r="0.6"/>
					<circle fill="#F15B30" cx="2.2" cy="-2.6" r="0.3"/>
					<circle fill="#F15B30" cx="2.2" cy="2.9" r="0.3"/>
					<circle fill="#F15B30" cx="2.2" cy="8.5" r="0.2"/>
					<circle fill="#F15B30" cx="2.2" cy="14" r="0.1"/>
					<circle fill="#F15B30" cx="7.8" cy="-13.7" r="0.6"/>
					<circle fill="#F15B30" cx="7.8" cy="-8.2" r="0.3"/>
					<circle fill="#F15B30" cx="7.8" cy="-2.6" r="0.3"/>
					<circle fill="#F15B30" cx="7.8" cy="2.9" r="0.2"/>
					<circle fill="#F15B30" cx="7.8" cy="8.5" r="0.1"/>
					<circle fill="#F15B30" cx="-8.9" cy="-13.7" r="0.6"/>
					<circle fill="#F15B30" cx="-8.9" cy="-8.2" r="0.6"/>
					<circle fill="#F15B30" cx="-8.9" cy="-2.6" r="0.6"/>
					<circle fill="#F15B30" cx="-8.9" cy="2.9" r="0.6"/>
					<circle fill="#F15B30" cx="-8.9" cy="8.5" r="0.3"/>
					<circle fill="#F15B30" cx="-8.9" cy="14" r="0.3"/>
					<circle fill="#F15B30" cx="-8.9" cy="19.6" r="0.2"/>
					<circle fill="#F15B30" cx="-8.9" cy="25.1" r="0.1"/>
					<circle fill="#F15B30" cx="-3.3" cy="-13.7" r="0.6"/>
					<circle fill="#F15B30" cx="-3.3" cy="-8.2" r="0.6"/>
					<circle fill="#F15B30" cx="-3.3" cy="-2.6" r="0.6"/>
					<circle fill="#F15B30" cx="-3.3" cy="2.9" r="0.3"/>
					<circle fill="#F15B30" cx="-3.3" cy="8.5" r="0.3"/>
					<circle fill="#F15B30" cx="-3.3" cy="14" r="0.2"/>
					<circle fill="#F15B30" cx="-3.3" cy="19.6" r="0.1"/>
					<circle fill="#F15B30" cx="-14.4" cy="-13.7" r="0.6"/>
					<circle fill="#F15B30" cx="-14.4" cy="-8.2" r="0.6"/>
					<circle fill="#F15B30" cx="-14.4" cy="-2.6" r="0.6"/>
					<circle fill="#F15B30" cx="-14.4" cy="2.9" r="0.6"/>
					<circle fill="#F15B30" cx="-14.4" cy="8.5" r="0.6"/>
					<circle fill="#F15B30" cx="-14.4" cy="14" r="0.3"/>
					<circle fill="#F15B30" cx="-14.4" cy="19.6" r="0.3"/>
					<circle fill="#F15B30" cx="-14.4" cy="25.1" r="0.2"/>
					<circle fill="#F15B30" cx="13.3" cy="-13.7" r="0.3"/>
					<circle fill="#F15B30" cx="13.3" cy="-8.2" r="0.3"/>
					<circle fill="#F15B30" cx="13.3" cy="-2.6" r="0.2"/>
					<circle fill="#F15B30" cx="13.3" cy="2.9" r="0.1"/>
					<circle fill="#F15B30" cx="18.9" cy="-13.7" r="0.3"/>
					<circle fill="#F15B30" cx="18.9" cy="-8.2" r="0.2"/>
					<circle fill="#F15B30" cx="18.9" cy="-2.6" r="0.1"/>
				</g>
			</g>
		</g>
	</g>
</g>
</svg>
